<?xml version="1.0" encoding="UTF-8"?>
<svg width="430" height="430" viewBox="0 0 430 430" xmlns="http://www.w3.org/2000/svg">
  <path fill="currentColor" fill-rule="evenodd" clip-rule="evenodd" d="M212.7 5.9L212.7 5.9C98.5 5.9 5.9 99.3 5.9 214.5S98.5 423 212.8 423c26.7 0 53.2-5.2 77.9-15.3l-30.1-30.3l-3.2-3.2l0 0   L244 360.6c-10.3 2.2-20.8 3.3-31.3 3.3C130.9 364 64.5 297 64.5 214.5S130.9 65 212.7 65S361 131.9 361 214.5   c0 10.6-1.1 21.2-3.3 31.5l46.7 47c10.1-25 15.2-51.6 15.2-78.5C419.6 99.3 327 5.9 212.7 5.9z
  M391.9 354.6l-44.3-44.6l-1.6-1.6l-8.9-8.9c-1.5-1.5-3.9-1.9-5.8-0.9c-4.1 2.3-7.9 5.2-11.1 8.6l-13.5 13.6   c-7.4 7.4-11.6 15.3-9.3 17.5l9.7 9.8l3.3 3.3l42.5 42.9l5.6 5.7c2.2 2.2 10-2 17.3-9.4l13.6-13.7c3.6-3.5 6.6-7.5 8.9-11.9   c0.7-1.6 0.4-3.4-0.8-4.6L391.9 354.6z
  M137.6 214.5c0 41.8 33.6 75.7 75.1 75.7c10 0 19.9-2 29.1-5.9c27.9-11.9 46.1-39.4 46-69.8c0-41.8-33.6-75.7-75.1-75.7   S137.6 172.6 137.6 214.5z"/>
</svg>
